<?xml version="1.0" encoding="UTF-8"?>
<!DOCTYPE svg PUBLIC "-//W3C//DTD SVG 1.1//EN" "http://www.w3.org/Graphics/SVG/1.1/DTD/svg11.dtd">
<svg xmlns="http://www.w3.org/2000/svg" version="1.1" width="1536px" height="1024px" style="shape-rendering:geometricPrecision; text-rendering:geometricPrecision; image-rendering:optimizeQuality; fill-rule:evenodd; clip-rule:evenodd" xmlns:xlink="http://www.w3.org/1999/xlink">
<g><path style="opacity:1" fill="#000000" d="M -0.5,-0.5 C 511.5,-0.5 1023.5,-0.5 1535.5,-0.5C 1535.5,340.833 1535.5,682.167 1535.5,1023.5C 1023.5,1023.5 511.5,1023.5 -0.5,1023.5C -0.5,682.167 -0.5,340.833 -0.5,-0.5 Z"/></g>
<g><path style="opacity:1" fill="#00bdc8" d="M 299.5,418.5 C 300.333,453.331 300.833,488.331 301,523.5C 301.5,488.502 301.667,453.502 301.5,418.5C 326.833,444.167 352.167,469.833 377.5,495.5C 377.5,496.167 377.5,496.833 377.5,497.5C 360.718,514.781 343.384,531.614 325.5,548C 327.5,550 329.5,552 331.5,554C 330.906,554.464 330.239,554.631 329.5,554.5C 319.869,544.368 310.036,534.368 300,524.5C 299.5,489.168 299.333,453.835 299.5,418.5 Z"/></g>
<g><path style="opacity:1" fill="#00ecef" d="M 299.5,418.5 C 300.167,417.167 300.833,417.167 301.5,418.5C 301.667,453.502 301.5,488.502 301,523.5C 300.833,488.331 300.333,453.331 299.5,418.5 Z"/></g>
<g><path style="opacity:1" fill="#0cb2c0" d="M 431.5,548.5 C 430.127,548.657 428.793,548.49 427.5,548C 416.667,536.5 405.833,525 395,513.5C 389.576,507.569 383.742,502.236 377.5,497.5C 377.5,496.833 377.5,496.167 377.5,495.5C 403.479,469.188 429.479,442.854 455.5,416.5C 456.667,452.162 456.833,487.829 456,523.5C 448.301,532.365 440.134,540.698 431.5,548.5 Z"/></g>
<g><path style="opacity:1" fill="#f9f9f9" d="M 666.5,465.5 C 697.432,461.867 717.265,474.867 726,504.5C 727.977,534.405 714.477,552.905 685.5,560C 658.258,561.799 640.758,549.632 633,523.5C 628.924,495.315 640.09,475.982 666.5,465.5 Z"/></g>
<g><path style="opacity:1" fill="#90908f" d="M 878.5,466.5 C 885.677,465.181 893.01,465.181 900.5,466.5C 900.376,467.107 900.043,467.44 899.5,467.5C 892.687,466.509 885.687,466.175 878.5,466.5 Z"/></g>
<g><path style="opacity:1" fill="#f8f9f8" d="M 606.5,467.5 C 613.255,466.877 619.588,467.544 625.5,469.5C 618.635,499.291 611.302,528.958 603.5,558.5C 595.5,558.5 587.5,558.5 579.5,558.5C 575.972,543.751 572.139,529.084 568,514.5C 565.997,509.101 563.997,503.768 562,498.5C 555.044,518.198 549.211,538.198 544.5,558.5C 536.833,558.5 529.167,558.5 521.5,558.5C 513.176,527.846 504.843,497.18 496.5,466.5C 503.39,465.189 510.223,465.189 517,466.5C 522.512,488.882 528.179,511.215 534,533.5C 540.154,511.55 545.987,489.55 551.5,467.5C 558.863,467.169 566.197,467.503 573.5,468.5C 579.164,489.823 584.831,511.156 590.5,532.5C 596.242,510.94 601.575,489.273 606.5,467.5 Z"/></g>
<g><path style="opacity:1" fill="#8e8f8f" d="M 606.5,467.5 C 612.979,466.509 619.646,466.176 626.5,466.5C 626.737,467.791 626.404,468.791 625.5,469.5C 619.588,467.544 613.255,466.877 606.5,467.5 Z"/></g>
<g><path style="opacity:1" fill="#fbfbfb" d="M 878.5,466.5 C 885.687,466.175 892.687,466.509 899.5,467.5C 888.625,482.077 877.625,496.577 866.5,511C 877.959,526.09 889.292,541.256 900.5,556.5C 892.962,557.782 885.295,557.782 877.5,556.5C 869.112,546.273 861.279,535.606 854,524.5C 852.296,522.627 850.463,520.96 848.5,519.5C 847.081,518.549 845.415,518.216 843.5,518.5C 843.5,531.833 843.5,545.167 843.5,558.5C 837.5,558.5 831.5,558.5 825.5,558.5C 825.5,550.167 825.5,541.833 825.5,533.5C 826.497,511.673 826.831,489.673 826.5,467.5C 832.167,467.5 837.833,467.5 843.5,467.5C 843.171,480.344 843.505,493.011 844.5,505.5C 846.764,504.419 848.931,503.085 851,501.5C 860.186,489.764 869.353,478.097 878.5,466.5 Z"/></g>
<g><path style="opacity:1" fill="#fafafa" d="M 772.5,527.5 C 768.366,526.515 764.032,526.182 759.5,526.5C 759.5,537.167 759.5,547.833 759.5,558.5C 753.167,558.5 746.833,558.5 740.5,558.5C 740.5,527.833 740.5,497.167 740.5,466.5C 753.504,466.333 766.504,466.5 779.5,467C 801.342,470.165 811.175,482.665 809,504.5C 805.78,513.887 799.614,520.553 790.5,524.5C 798.081,535.328 805.415,546.328 812.5,557.5C 805.189,558.665 797.856,558.831 790.5,558C 784.615,547.723 778.615,537.557 772.5,527.5 Z"/></g>
<g><path style="opacity:1" fill="#fcfcfc" d="M 990.5,557.5 C 984.167,557.5 977.833,557.5 971.5,557.5C 971.829,544.656 971.495,531.989 970.5,519.5C 957.833,519.5 945.167,519.5 932.5,519.5C 932.5,532.167 932.5,544.833 932.5,557.5C 926.5,557.5 920.5,557.5 914.5,557.5C 914.5,527.5 914.5,497.5 914.5,467.5C 920.5,467.5 926.5,467.5 932.5,467.5C 932.5,480.167 932.5,492.833 932.5,505.5C 945.344,505.829 958.011,505.495 970.5,504.5C 970.5,491.833 970.5,479.167 970.5,466.5C 977.167,466.5 983.833,466.5 990.5,466.5C 990.5,496.833 990.5,527.167 990.5,557.5 Z"/></g>
<g><path style="opacity:1" fill="#fbfbfb" d="M 1067.5,526.5 C 1068.5,507.007 1068.83,487.34 1068.5,467.5C 1074.5,467.5 1080.5,467.5 1086.5,467.5C 1086.5,487.5 1086.5,507.5 1086.5,527.5C 1084.48,543.041 1076.15,553.541 1061.5,559C 1047.01,562.765 1033.67,560.431 1021.5,552C 1015.47,546.446 1011.64,539.613 1010,531.5C 1009.5,509.836 1009.33,488.169 1009.5,466.5C 1015.5,466.5 1021.5,466.5 1027.5,466.5C 1027.33,486.836 1027.5,507.169 1028,527.5C 1031.76,539.586 1039.92,544.752 1052.5,543C 1061.54,541.124 1066.54,535.624 1067.5,526.5 Z"/></g>
<g><path style="opacity:1" fill="#f9f9f9" d="M 1149.5,467.5 C 1166.15,468.975 1173.98,477.975 1173,494.5C 1171.22,502.575 1166.39,507.742 1158.5,510C 1175.71,515.931 1180.88,527.431 1174,544.5C 1169.1,552.377 1161.94,556.877 1152.5,558C 1137.17,558.5 1121.84,558.667 1106.5,558.5C 1106.5,528.167 1106.5,497.833 1106.5,467.5C 1120.83,467.5 1135.17,467.5 1149.5,467.5 Z"/></g>
<g><path style="opacity:1" fill="#7f807f" d="M 1149.5,467.5 C 1135.17,467.5 1120.83,467.5 1106.5,467.5C 1106.5,497.833 1106.5,528.167 1106.5,558.5C 1105.5,528.005 1105.17,497.338 1105.5,466.5C 1120.34,466.171 1135.01,466.504 1149.5,467.5 Z"/></g>
<g><path style="opacity:1" fill="#464747" d="M 684.5,483.5 C 679.463,483.413 674.463,483.746 669.5,484.5C 672.186,483.009 675.186,482.343 678.5,482.5C 680.696,482.505 682.696,482.838 684.5,483.5 Z"/></g>
<g><path style="opacity:1" fill="#020202" d="M 1124.5,482.5 C 1132.99,481.989 1141.32,482.822 1149.5,485C 1153.87,489.088 1154.7,493.921 1152,499.5C 1150.58,500.46 1149.08,501.293 1147.5,502C 1139.92,503.396 1132.25,503.896 1124.5,503.5C 1124.5,496.5 1124.5,489.5 1124.5,482.5 Z"/></g>
<g><path style="opacity:1" fill="#020202" d="M 684.5,483.5 C 696.195,486.362 703.361,493.695 706,505.5C 708.893,527.084 699.726,539.751 678.5,543.5C 664.46,541.295 655.627,533.295 652,519.5C 648.844,503.144 654.678,491.477 669.5,484.5C 674.463,483.746 679.463,483.413 684.5,483.5 Z"/></g>
<g><path style="opacity:1" fill="#020202" d="M 760.5,483.5 C 768.382,482.861 776.049,483.694 783.5,486C 791.154,493.228 791.488,500.894 784.5,509C 783.167,509.667 781.833,510.333 780.5,511C 773.842,511.5 767.175,511.666 760.5,511.5C 760.5,502.167 760.5,492.833 760.5,483.5 Z"/></g>
<g><path style="opacity:1" fill="#00b0cb" d="M 377.5,497.5 C 377.174,532.573 377.507,567.573 378.5,602.5C 378.103,603.525 377.437,603.692 376.5,603C 360.941,586.704 345.275,570.538 329.5,554.5C 330.239,554.631 330.906,554.464 331.5,554C 329.5,552 327.5,550 325.5,548C 343.384,531.614 360.718,514.781 377.5,497.5 Z"/></g>
<g><path style="opacity:1" fill="#009aba" d="M 377.5,497.5 C 383.742,502.236 389.576,507.569 395,513.5C 405.833,525 416.667,536.5 427.5,548C 428.793,548.49 430.127,548.657 431.5,548.5C 413.806,566.527 396.139,584.527 378.5,602.5C 377.507,567.573 377.174,532.573 377.5,497.5 Z"/></g>
<g><path style="opacity:1" fill="#949594" d="M 932.5,467.5 C 933.495,479.655 933.829,491.989 933.5,504.5C 945.833,504.5 958.167,504.5 970.5,504.5C 958.011,505.495 945.344,505.829 932.5,505.5C 932.5,492.833 932.5,480.167 932.5,467.5 Z"/></g>
<g><path style="opacity:1" fill="#c3c3c3" d="M 844.5,505.5 C 843.505,493.011 843.171,480.344 843.5,467.5C 837.833,467.5 832.167,467.5 826.5,467.5C 826.831,489.673 826.497,511.673 825.5,533.5C 825.5,511.167 825.5,488.833 825.5,466.5C 831.833,466.5 838.167,466.5 844.5,466.5C 844.5,479.5 844.5,492.5 844.5,505.5 Z"/></g>
<g><path style="opacity:1" fill="#7f7f7e" d="M 1086.5,527.5 C 1086.5,507.5 1086.5,487.5 1086.5,467.5C 1080.5,467.5 1074.5,467.5 1068.5,467.5C 1068.83,487.34 1068.5,507.007 1067.5,526.5C 1067.5,506.5 1067.5,486.5 1067.5,466.5C 1074.17,466.5 1080.83,466.5 1087.5,466.5C 1087.83,487.007 1087.5,507.34 1086.5,527.5 Z"/></g>
<g><path style="opacity:1" fill="#797979" d="M 970.5,519.5 C 970.5,519.833 970.5,520.167 970.5,520.5C 958.167,520.5 945.833,520.5 933.5,520.5C 933.829,533.344 933.495,546.011 932.5,558.5C 932.5,558.167 932.5,557.833 932.5,557.5C 932.5,544.833 932.5,532.167 932.5,519.5C 945.167,519.5 957.833,519.5 970.5,519.5 Z"/></g>
<g><path style="opacity:1" fill="#020202" d="M 1124.5,518.5 C 1133.98,517.989 1143.31,518.822 1152.5,521C 1157.68,525.524 1158.84,531.024 1156,537.5C 1153.97,539.737 1151.47,541.237 1148.5,542C 1140.51,542.5 1132.51,542.666 1124.5,542.5C 1124.5,534.5 1124.5,526.5 1124.5,518.5 Z"/></g>
<g><path style="opacity:1" fill="#a0a0a0" d="M 848.5,519.5 C 847.167,519.5 845.833,519.5 844.5,519.5C 844.5,532.833 844.5,546.167 844.5,559.5C 837.978,559.823 831.645,559.49 825.5,558.5C 831.5,558.5 837.5,558.5 843.5,558.5C 843.5,545.167 843.5,531.833 843.5,518.5C 845.415,518.216 847.081,518.549 848.5,519.5 Z"/></g>
<g><path style="opacity:1" fill="#adacac" d="M 932.5,467.5 C 926.5,467.5 920.5,467.5 914.5,467.5C 914.5,497.5 914.5,527.5 914.5,557.5C 920.5,557.5 926.5,557.5 932.5,557.5C 932.5,557.833 932.5,558.167 932.5,558.5C 926.167,558.5 919.833,558.5 913.5,558.5C 913.5,527.833 913.5,497.167 913.5,466.5C 920.022,466.177 926.355,466.51 932.5,467.5 Z"/></g>
<g><path style="opacity:1" fill="#c8c8c8" d="M 970.5,519.5 C 971.495,531.989 971.829,544.656 971.5,557.5C 977.833,557.5 984.167,557.5 990.5,557.5C 984.021,558.491 977.354,558.824 970.5,558.5C 970.5,545.833 970.5,533.167 970.5,520.5C 970.5,520.167 970.5,519.833 970.5,519.5 Z"/></g>
<g><path style="opacity:1" fill="#aaaaaa" d="M 772.5,527.5 C 768.5,527.5 764.5,527.5 760.5,527.5C 760.828,538.014 760.494,548.347 759.5,558.5C 759.5,547.833 759.5,537.167 759.5,526.5C 764.032,526.182 768.366,526.515 772.5,527.5 Z"/></g>
<g><path style="opacity:1" fill="#b5b5b4" d="M 877.5,556.5 C 885.295,557.782 892.962,557.782 900.5,556.5C 901.043,556.56 901.376,556.893 901.5,557.5C 893.855,558.665 886.188,558.831 878.5,558C 877.944,557.617 877.611,557.117 877.5,556.5 Z"/></g>
</svg>
